<svg width="1246" height="400" viewBox="0 0 1246 400" fill="none" xmlns="http://www.w3.org/2000/svg">
<path d="M488.101 267.892V252.054C475.428 266.125 457.43 274.196 438.504 274.298C408.164 274.298 393 258.244 393 229.811V132.664C392.987 131.139 394.182 129.893 395.707 129.817H420.62C422.196 129.817 423.48 131.088 423.505 132.664V218.333C423.505 240.221 434.589 247.25 452.066 247.25C466.2 246.868 479.394 240.119 487.961 228.883V132.664C487.986 131.088 489.27 129.817 490.859 129.817H515.81C517.386 129.817 518.657 131.1 518.657 132.664V267.892C518.657 269.468 517.386 270.739 515.81 270.739H490.897C489.346 270.688 488.113 269.443 488.101 267.892ZM622.083 247.123C607.669 246.716 594.285 239.585 585.909 227.866V172.118C594.399 160.602 607.771 153.687 622.083 153.446C646.36 153.446 662.109 172.702 662.109 200.144H662.286C662.286 227.548 646.538 247.123 622.083 247.123ZM631.463 126.309C613.529 126.22 596.636 134.672 585.959 149.086V132.664C585.959 131.1 584.688 129.817 583.112 129.817H558.2C556.623 129.817 555.327 131.088 555.314 132.664V321.581C555.327 323.17 556.623 324.429 558.2 324.429H583.112C584.688 324.429 585.959 323.157 585.959 321.581V251.216H586.137C596.763 265.617 613.567 274.158 631.463 274.26C667.765 274.26 693.732 246.538 693.732 200.144C693.732 153.751 667.943 126.309 631.463 126.309ZM819.618 270.739C818.055 270.739 816.771 269.468 816.771 267.892V182.044C816.771 159.801 805.662 153.446 788.439 153.446C774.178 153.852 760.87 160.729 752.277 172.118V267.892C752.252 269.468 750.968 270.739 749.379 270.739H724.873C723.297 270.739 722.013 269.468 721.988 267.892V78.9743C721.937 77.3855 723.196 76.0508 724.784 76H749.748C751.324 76 752.608 77.2583 752.633 78.8472V148.768C765.217 134.57 783.253 126.398 802.23 126.309C832.57 126.309 847.734 142.057 847.734 170.796V267.892C847.734 269.468 846.463 270.739 844.887 270.739H819.618ZM948.046 247.123C922.065 247.123 907.474 224.968 907.474 200.144C907.474 175.321 921.76 153.446 948.046 153.446C974.331 153.446 988.618 175.321 988.618 200.144H988.783C988.783 225.235 974.026 247.123 948.046 247.123ZM948.046 126.309C903.114 126.309 875.672 159.585 875.672 200.144H875.85C875.85 240.577 903.114 274.26 948.046 274.26C992.965 274.26 1020.42 240.717 1020.42 200.144C1020.42 159.585 992.965 126.309 948.046 126.309ZM1048.71 267.892V78.9743C1048.74 77.3982 1050.02 76.1271 1051.6 76.1271H1076.46C1078.05 76.1271 1079.33 77.3982 1079.36 78.9743V267.892C1079.33 269.468 1078.05 270.739 1076.46 270.739H1051.6C1050.09 270.65 1048.9 269.404 1048.89 267.892H1048.71ZM1179.12 247.123C1154.58 247.123 1139.1 227.281 1139.1 200.144C1139.1 173.007 1154.62 153.446 1179.12 153.446C1193.51 153.713 1206.93 160.754 1215.34 172.435V228.171H1215.51C1207.06 239.878 1193.58 246.894 1179.12 247.123ZM1243.1 76.1271H1218.18C1216.61 76.1271 1215.34 77.4109 1215.34 78.9743V149.34C1204.91 134.748 1188.03 126.156 1170.1 126.309C1134.06 126.309 1107.83 154.602 1107.83 200.144C1107.83 246.805 1134.2 274.26 1170.1 274.26C1187.92 274.196 1204.67 265.756 1215.34 251.482V267.892H1215.51C1215.51 269.404 1216.68 270.65 1218.18 270.739H1243.1C1244.67 270.739 1245.94 269.468 1245.94 267.892V78.9743C1245.94 77.4109 1244.67 76.1271 1243.1 76.1271Z" fill="black"/>
<path d="M244.604 221.975C236.367 240.8 225.487 258.34 212.268 274.076C221.165 238.753 216.717 193.199 197.46 148.94C187.762 126.646 174.492 106.093 158.172 88.0947C182.639 68.2916 208.124 61.8473 227.838 70.9608C240.473 76.795 250.082 88.7557 255.992 105.483C266.987 137.247 262.716 180.793 244.426 221.975H244.604ZM39.315 221.975C21.2151 180.793 17.0842 137.463 27.9263 105.483C33.7096 88.7175 43.4586 76.795 56.0929 70.9608C75.7943 61.8473 101.279 68.2916 125.798 88.0947C109.439 106.08 96.1567 126.646 86.4712 148.94C67.0367 193.427 62.677 238.753 71.6634 274.025C58.4317 258.328 47.5387 240.8 39.315 221.975ZM160.307 311.255C148.689 316.707 135.242 316.707 123.612 311.255C85.6704 293.778 77.9805 223.501 106.846 157.927C115.54 137.908 127.45 119.464 142.118 103.297C156.748 119.464 168.62 137.92 177.263 157.927C205.951 223.501 198.261 293.778 160.307 311.255ZM211.823 44.6753C189.363 43.7475 164.845 53.5727 141.991 72.5242C119.074 53.5727 94.5678 43.8237 72.1083 44.6753C113.926 14.9071 170.005 14.9071 211.823 44.6753ZM277.117 98.5047V97.831C252.662 23.2707 172.395 -17.3397 97.8345 7.11553C54.7329 21.2624 20.9736 55.1234 6.97925 98.2759C7.00467 98.3649 7.00467 98.4539 6.97925 98.5428C-5.56609 135.416 -1.02841 184.797 19.2195 230.784C46.8778 293.689 97.11 337.553 141.533 337.553H142.83C187.317 337.553 237.486 293.816 265.157 230.784C285.214 184.886 289.752 135.416 277.117 98.5047ZM180.021 372.202C167.997 375.824 155.515 377.693 142.97 377.756H141.228C128.594 377.706 116.036 375.799 103.948 372.113C98.0633 370.372 91.8605 373.727 90.1191 379.625C88.3778 385.523 91.7461 391.713 97.6311 393.454C111.778 397.725 126.459 399.924 141.228 400H142.97C157.638 399.936 172.242 397.75 186.287 393.505C192.083 391.471 195.134 385.116 193.088 379.32C191.194 373.956 185.563 370.88 180.021 372.202Z" fill="#49CC68"/>
</svg>
